<svg width="25" height="25" viewBox="0 0 25 25" fill="none" xmlns="http://www.w3.org/2000/svg">
  <rect x="3.5" y="3.5" width="4.09433" height="4.09433" fill="currentColor"/>
  <rect x="3.5" y="3.5" width="4.09433" height="4.09433" stroke="currentColor"/>
  <rect x="9.95264" y="3.5" width="4.09433" height="4.09433" fill="currentColor"/>
  <rect x="9.95264" y="3.5" width="4.09433" height="4.09433" stroke="currentColor"/>
  <rect x="16.4058" y="3.5" width="4.09433" height="4.09433" fill="currentColor"/>
  <rect x="16.4058" y="3.5" width="4.09433" height="4.09433" stroke="currentColor"/>
  <rect x="3.5" y="9.95288" width="4.09433" height="4.09433" fill="currentColor"/>
  <rect x="3.5" y="9.95288" width="4.09433" height="4.09433" stroke="currentColor"/>
  <rect x="9.95264" y="9.95288" width="4.09433" height="4.09433" fill="currentColor"/>
  <rect x="9.95264" y="9.95288" width="4.09433" height="4.09433" stroke="currentColor"/>
  <rect x="16.4058" y="9.95288" width="4.09433" height="4.09433" fill="currentColor"/>
  <rect x="16.4058" y="9.95288" width="4.09433" height="4.09433" stroke="currentColor"/>
  <rect x="3.5" y="16.4058" width="4.09433" height="4.09433" fill="currentColor"/>
  <rect x="3.5" y="16.4058" width="4.09433" height="4.09433" stroke="currentColor"/>
  <rect x="9.95264" y="16.4058" width="4.09433" height="4.09433" fill="currentColor"/>
  <rect x="9.95264" y="16.4058" width="4.09433" height="4.09433" stroke="currentColor"/>
  <rect x="16.4058" y="16.4058" width="4.09433" height="4.09433" fill="currentColor"/>
  <rect x="16.4058" y="16.4058" width="4.09433" height="4.09433" stroke="currentColor"/>
</svg>
