<svg width="24" height="24" viewBox="0 0 24 24" fill="currentColor" xmlns="http://www.w3.org/2000/svg">
  <path d="M7.37015 20.1938C7.2434 20.1939 7.12175 20.1438 7.03175 20.0546L0.861352 13.8818C0.816598 13.8373 0.781035 13.7845 0.756693 13.7263C0.732351 13.6681 0.719708 13.6057 0.719485 13.5427C0.719263 13.4796 0.731464 13.4171 0.755394 13.3587C0.779324 13.3004 0.814513 13.2473 0.858952 13.2026C0.903392 13.1578 0.956211 13.1222 1.01439 13.0979C1.07258 13.0736 1.13499 13.0609 1.19806 13.0607C1.26112 13.0605 1.32362 13.0727 1.38197 13.0966C1.44033 13.1205 1.4934 13.1557 1.53815 13.2002L7.37015 19.0322L22.4614 3.94576C22.5528 3.86318 22.6725 3.81894 22.7957 3.82219C22.9189 3.82544 23.0361 3.87593 23.123 3.96321C23.21 4.05049 23.2601 4.16788 23.2629 4.29106C23.2657 4.41425 23.2211 4.5338 23.1382 4.62496L7.71095 20.0546C7.6661 20.099 7.61291 20.1342 7.55443 20.1581C7.49595 20.182 7.43332 20.1941 7.37015 20.1938Z"/>
</svg>
