<svg width="24" height="24" viewBox="0 0 24 24" fill="none" xmlns="http://www.w3.org/2000/svg">
<g clip-path="url(#clip0_16029_70266)">
<path d="M23.1407 17.1455L12.3407 6.17987C12.2491 6.09187 12.1269 6.04272 11.9999 6.04272C11.8728 6.04272 11.7507 6.09187 11.6591 6.17987L0.859087 17.1455C0.811155 17.1894 0.772645 17.2426 0.745892 17.3018C0.71914 17.3611 0.704703 17.4252 0.703457 17.4902C0.702212 17.5552 0.714183 17.6197 0.738645 17.68C0.763108 17.7402 0.799551 17.7948 0.845765 17.8406C0.891979 17.8863 0.947 17.9222 1.00749 17.946C1.06798 17.9698 1.13268 17.9811 1.19766 17.9792C1.26265 17.9772 1.32656 17.9621 1.38552 17.9347C1.44449 17.9073 1.49728 17.8683 1.54069 17.8199L3.85909 15.4655C3.92933 15.4428 3.99339 15.4042 4.04629 15.3527L11.9999 7.39907L19.9535 15.3599C20.0064 15.4114 20.0704 15.45 20.1407 15.4727L22.4591 17.8271C22.5035 17.8724 22.5566 17.9085 22.6151 17.9332C22.6736 17.9579 22.7364 17.9708 22.7999 17.9711C22.8947 17.9711 22.9875 17.9431 23.0664 17.8905C23.1453 17.8379 23.2069 17.7632 23.2434 17.6756C23.2798 17.588 23.2895 17.4916 23.2713 17.3986C23.253 17.3055 23.2076 17.2199 23.1407 17.1527V17.1455Z" fill="currentColor"/>
</g>
<defs>
<clipPath id="clip0_16029_70266">
<rect width="24" height="24" fill="white"/>
</clipPath>
</defs>
</svg>
