<svg width="24" height="24" viewBox="0 0 24 24" fill="none" xmlns="http://www.w3.org/2000/svg">
<g clip-path="url(#clip0_16029_70290)">
<path d="M22.7992 11.5197H12.4792V1.19973C12.4792 1.07242 12.4287 0.950333 12.3386 0.860315C12.2486 0.770298 12.1265 0.719727 11.9992 0.719727C11.8719 0.719727 11.7498 0.770298 11.6598 0.860315C11.5698 0.950333 11.5192 1.07242 11.5192 1.19973V11.5197H1.19924C1.07193 11.5197 0.949844 11.5703 0.859827 11.6603C0.76981 11.7503 0.719238 11.8724 0.719238 11.9997C0.719238 12.127 0.76981 12.2491 0.859827 12.3391C0.949844 12.4292 1.07193 12.4797 1.19924 12.4797H11.5192V22.7997C11.5192 22.927 11.5698 23.0491 11.6598 23.1391C11.7498 23.2292 11.8719 23.2797 11.9992 23.2797C12.1265 23.2797 12.2486 23.2292 12.3386 23.1391C12.4287 23.0491 12.4792 22.927 12.4792 22.7997V12.4797H22.7992C22.9265 12.4797 23.0486 12.4292 23.1386 12.3391C23.2287 12.2491 23.2792 12.127 23.2792 11.9997C23.2792 11.8724 23.2287 11.7503 23.1386 11.6603C23.0486 11.5703 22.9265 11.5197 22.7992 11.5197Z" fill="currentColor"/>
</g>
<defs>
<clipPath id="clip0_16029_70290">
<rect width="24" height="24" fill="white"/>
</clipPath>
</defs>
</svg>
