<svg width="24" height="24" viewBox="0 0 24 24" fill="none" xmlns="http://www.w3.org/2000/svg">
  <path d="M12.6795 11.9997L23.1387 1.53807C23.2173 1.44624 23.2584 1.32813 23.2537 1.20732C23.2491 1.08652 23.199 0.971924 23.1135 0.886439C23.028 0.800953 22.9134 0.750874 22.7926 0.746208C22.6718 0.741541 22.5537 0.782632 22.4619 0.861269L12.0003 11.3205L1.53867 0.861269C1.44685 0.782632 1.32873 0.741541 1.20793 0.746208C1.08712 0.750874 0.972528 0.800953 0.887042 0.886439C0.801557 0.971924 0.751477 1.08652 0.746811 1.20732C0.742145 1.32813 0.783236 1.44624 0.861873 1.53807L11.3211 11.9997L0.861873 22.4613C0.811625 22.5043 0.770816 22.5573 0.742004 22.6168C0.713193 22.6764 0.697003 22.7412 0.694449 22.8073C0.691896 22.8734 0.703035 22.9393 0.727167 23.0009C0.751299 23.0625 0.787902 23.1185 0.834681 23.1653C0.881459 23.212 0.937402 23.2486 0.998998 23.2728C1.06059 23.2969 1.12651 23.308 1.19262 23.3055C1.25872 23.3029 1.32359 23.2867 1.38314 23.2579C1.44269 23.2291 1.49564 23.1883 1.53867 23.1381L12.0003 12.6789L22.4619 23.1381C22.5537 23.2167 22.6718 23.2578 22.7926 23.2531C22.9134 23.2485 23.028 23.1984 23.1135 23.1129C23.199 23.0274 23.2491 22.9128 23.2537 22.792C23.2584 22.6712 23.2173 22.5531 23.1387 22.4613L12.6795 11.9997Z" fill="currentColor" stroke="currentColor"/>
</svg>
