<svg width="24" height="24" viewBox="0 0 24 24" fill="none" xmlns="http://www.w3.org/2000/svg">
<path d="M23.1359 6.17545C23.046 6.08605 22.9243 6.03587 22.7975 6.03587C22.6707 6.03587 22.549 6.08605 22.4591 6.17545L20.1407 8.52985C20.0704 8.55255 20.0064 8.59115 19.9535 8.64265L11.9999 16.601L4.04629 8.64025C3.99339 8.58875 3.92933 8.55015 3.85909 8.52745L1.54069 6.18025C1.49728 6.13185 1.44449 6.09278 1.38552 6.0654C1.32656 6.03802 1.26265 6.0229 1.19766 6.02096C1.13268 6.01903 1.06798 6.03031 1.00749 6.05414C0.947 6.07796 0.891979 6.11382 0.845765 6.15954C0.799551 6.20527 0.763108 6.25991 0.738645 6.32014C0.714183 6.38037 0.702212 6.44495 0.703457 6.50995C0.704703 6.57495 0.71914 6.63902 0.745892 6.69827C0.772645 6.75752 0.811155 6.81072 0.859087 6.85465L11.6591 17.8202C11.7037 17.8652 11.7568 17.9009 11.8153 17.9253C11.8738 17.9497 11.9365 17.9622 11.9999 17.9622C12.0633 17.9622 12.126 17.9497 12.1845 17.9253C12.243 17.9009 12.2961 17.8652 12.3407 17.8202L23.1407 6.85465C23.185 6.80975 23.22 6.75656 23.2438 6.69812C23.2675 6.63968 23.2795 6.57713 23.2791 6.51405C23.2786 6.45097 23.2657 6.3886 23.2412 6.3305C23.2166 6.2724 23.1808 6.21971 23.1359 6.17545Z" fill="currentColor"/>
</svg>
