<svg width="24" height="24" viewBox="0 0 24 24" fill="none" xmlns="http://www.w3.org/2000/svg">
  <path d="M4.80002 7.58902H3.56162V1.20021C3.56162 1.07291 3.51105 0.950821 3.42103 0.860804C3.33101 0.770786 3.20892 0.720215 3.08162 0.720215C2.95431 0.720215 2.83222 0.770786 2.74221 0.860804C2.65219 0.950821 2.60162 1.07291 2.60162 1.20021V7.58902H1.35842C1.23111 7.58902 1.10902 7.63959 1.01901 7.7296C0.928989 7.81962 0.878418 7.94171 0.878418 8.06901C0.878418 8.19632 0.928989 8.31841 1.01901 8.40843C1.10902 8.49844 1.23111 8.54901 1.35842 8.54901H2.60162V22.8002C2.60162 22.9275 2.65219 23.0496 2.74221 23.1396C2.83222 23.2296 2.95431 23.2802 3.08162 23.2802C3.20892 23.2802 3.33101 23.2296 3.42103 23.1396C3.51105 23.0496 3.56162 22.9275 3.56162 22.8002V8.54901H4.80002C4.92732 8.54901 5.04941 8.49844 5.13943 8.40843C5.22945 8.31841 5.28002 8.19632 5.28002 8.06901C5.28002 7.94171 5.22945 7.81962 5.13943 7.7296C5.04941 7.63959 4.92732 7.58902 4.80002 7.58902Z" fill="currentColor"/>
  <path d="M10.7496 16.0514H9.53284V1.20021C9.53284 1.07291 9.48227 0.950821 9.39225 0.860804C9.30224 0.770786 9.18015 0.720215 9.05284 0.720215C8.92554 0.720215 8.80345 0.770786 8.71343 0.860804C8.62341 0.950821 8.57284 1.07291 8.57284 1.20021V16.0514H7.30324C7.17594 16.0514 7.05385 16.102 6.96383 16.192C6.87381 16.282 6.82324 16.4041 6.82324 16.5314C6.82324 16.6587 6.87381 16.7808 6.96383 16.8708C7.05385 16.9608 7.17594 17.0114 7.30324 17.0114H8.57284V22.8002C8.57284 22.9275 8.62341 23.0496 8.71343 23.1396C8.80345 23.2296 8.92554 23.2802 9.05284 23.2802C9.18015 23.2802 9.30224 23.2296 9.39225 23.1396C9.48227 23.0496 9.53284 22.9275 9.53284 22.8002V17.0114H10.7496C10.8769 17.0114 10.999 16.9608 11.0891 16.8708C11.1791 16.7808 11.2296 16.6587 11.2296 16.5314C11.2296 16.4041 11.1791 16.282 11.0891 16.192C10.999 16.102 10.8769 16.0514 10.7496 16.0514Z" fill="currentColor"/>
  <path d="M16.6967 8.84421H15.4799V1.20021C15.4799 1.07291 15.4293 0.950821 15.3393 0.860804C15.2493 0.770786 15.1272 0.720215 14.9999 0.720215C14.8726 0.720215 14.7505 0.770786 14.6605 0.860804C14.5704 0.950821 14.5199 1.07291 14.5199 1.20021V8.84421H13.2503C13.123 8.84421 13.0009 8.89479 12.9109 8.9848C12.8208 9.07482 12.7703 9.19691 12.7703 9.32421C12.7703 9.45152 12.8208 9.57361 12.9109 9.66363C13.0009 9.75364 13.123 9.80421 13.2503 9.80421H14.5199V22.8002C14.5199 22.9275 14.5704 23.0496 14.6605 23.1396C14.7505 23.2296 14.8726 23.2802 14.9999 23.2802C15.1272 23.2802 15.2493 23.2296 15.3393 23.1396C15.4293 23.0496 15.4799 22.9275 15.4799 22.8002V9.80421H16.6967C16.824 9.80421 16.9461 9.75364 17.0361 9.66363C17.1261 9.57361 17.1767 9.45152 17.1767 9.32421C17.1767 9.19691 17.1261 9.07482 17.0361 8.9848C16.9461 8.89479 16.824 8.84421 16.6967 8.84421Z" fill="currentColor"/>
  <path d="M22.6416 13.8578H21.4248V1.20021C21.4248 1.07291 21.3742 0.950821 21.2842 0.860804C21.1942 0.770786 21.0721 0.720215 20.9448 0.720215C20.8175 0.720215 20.6954 0.770786 20.6054 0.860804C20.5153 0.950821 20.4648 1.07291 20.4648 1.20021V13.8578H19.2C19.0727 13.8578 18.9506 13.9084 18.8606 13.9984C18.7705 14.0884 18.72 14.2105 18.72 14.3378C18.72 14.4651 18.7705 14.5872 18.8606 14.6772C18.9506 14.7672 19.0727 14.8178 19.2 14.8178H20.4696V22.8002C20.4696 22.9275 20.5201 23.0496 20.6102 23.1396C20.7002 23.2296 20.8223 23.2802 20.9496 23.2802C21.0769 23.2802 21.199 23.2296 21.289 23.1396C21.379 23.0496 21.4296 22.9275 21.4296 22.8002V14.8178H22.6464C22.7737 14.8178 22.8958 14.7672 22.9858 14.6772C23.0758 14.5872 23.1264 14.4651 23.1264 14.3378C23.1264 14.2105 23.0758 14.0884 22.9858 13.9984C22.8958 13.9084 22.7737 13.8578 22.6464 13.8578H22.6416Z" fill="currentColor"/>
</svg>
